<svg width="32" height="32" viewBox="0 0 32 32" fill="none" xmlns="http://www.w3.org/2000/svg">
<path d="M22.4127 25.0337C22.4127 25.0337 22.32 25.0669 22.2772 25.08C22.1072 25.0902 21.9603 25.0231 21.8209 24.935C21.451 24.7213 21.0742 24.5003 20.7043 24.2866C20.5576 24.2054 20.4094 24.1948 20.2591 24.2691C19.7869 24.4986 19.3154 24.6998 18.817 24.8438C18.4181 24.9619 18.0196 25.0658 17.608 25.1269C17.3739 25.1568 17.2226 25.2735 17.1325 25.4978C16.9602 25.9111 16.7669 26.3168 16.5877 26.7229C16.5055 26.9119 16.3545 27.0145 16.1421 27.0237C15.5408 27.0309 14.9479 26.9747 14.3561 26.876C14.1588 26.8431 14.0273 26.7198 13.9754 26.5206C13.8514 26.0721 13.7275 25.6236 13.6108 25.1682C13.5588 24.969 13.4345 24.8387 13.2379 24.7776C12.8309 24.6408 12.4314 24.483 12.047 24.283C11.5995 24.0604 11.1741 23.803 10.7638 23.5034C10.6178 23.3939 10.4629 23.362 10.2916 23.4288C10.1989 23.462 10.1203 23.4955 10.0276 23.5287C9.68497 23.6622 9.33545 23.7884 8.99284 23.9219C8.75018 24.0153 8.57428 23.9758 8.39443 23.8019C8.00054 23.4037 7.63559 22.9779 7.3068 22.5176C7.1628 22.3232 7.15327 22.125 7.27855 21.9086C7.50707 21.5108 7.74284 21.1061 7.97136 20.7082C8.05258 20.5616 8.07034 20.4064 7.98913 20.2489C7.7797 19.8267 7.59887 19.391 7.45389 18.935C7.30167 18.4858 7.1991 18.0308 7.1179 17.5692C7.0801 17.3702 6.98442 17.2265 6.80227 17.1516C6.37516 16.9648 5.95529 16.7711 5.54233 16.5847C5.34637 16.4952 5.23689 16.3371 5.23492 16.1178C5.23099 15.6792 5.25533 15.2412 5.32209 14.8042C5.33919 14.6773 5.3632 14.5576 5.3734 14.4235C5.40004 14.1907 5.53156 14.0099 5.82321 13.9389C6.25722 13.8287 6.68434 13.7114 7.11145 13.594C7.28933 13.5486 7.4123 13.4312 7.4659 13.2557C7.76283 12.3502 8.1995 11.5186 8.74796 10.7463C8.85746 10.6003 8.87555 10.431 8.80881 10.2597C8.7756 10.167 8.74207 10.0884 8.70886 9.99567C8.57538 9.65306 8.44913 9.30354 8.31565 8.96093C8.23576 8.74688 8.26832 8.56374 8.42779 8.3977C8.84044 7.99001 9.27348 7.61815 9.74104 7.28246C9.92813 7.14536 10.1192 7.14273 10.3217 7.25355C10.7264 7.48931 11.1312 7.72507 11.529 7.95359C11.6826 8.04204 11.8381 8.04567 11.9953 7.9786C12.3888 7.78264 12.7818 7.61497 13.2023 7.47623C13.68 7.31053 14.1637 7.19448 14.6678 7.11427C14.8877 7.08403 15.0248 6.96698 15.1143 6.77102C15.2938 6.35082 15.4872 5.94509 15.6736 5.53213C15.7703 5.32926 15.9212 5.22668 16.1474 5.23195C16.6919 5.23755 17.2357 5.27144 17.7713 5.35464C17.87 5.37108 17.9614 5.39443 18.0455 5.42468C18.2136 5.49932 18.2734 5.66339 18.3119 5.83404C18.4223 6.25392 18.5397 6.68103 18.6502 7.10091C18.7024 7.28603 18.8129 7.40177 18.9954 7.4626C19.8937 7.76644 20.7255 8.18897 21.4906 8.74433C21.6366 8.85383 21.7987 8.87882 21.9772 8.80517C22.1271 8.74501 22.284 8.69208 22.4339 8.63191C22.6979 8.53197 22.9547 8.43893 23.226 8.33207C23.4973 8.22522 23.6804 8.25778 23.8879 8.46065C24.1986 8.78617 24.5089 9.12583 24.7835 9.48587C24.8456 9.55098 24.8933 9.62989 24.9482 9.7019C25.1195 9.9393 25.1297 10.1093 24.9824 10.3605C24.7611 10.7514 24.5257 11.142 24.3044 11.533C24.2159 11.6865 24.2054 11.8348 24.2866 11.9923C24.4691 12.3573 24.6298 12.7429 24.7623 13.128C24.9412 13.6485 25.0704 14.1749 25.1641 14.7075C25.1953 14.8851 25.2913 15.0146 25.4593 15.0893C25.8792 15.2829 26.3063 15.4697 26.7262 15.6634C26.9363 15.7532 27.0385 15.9182 27.0401 16.1517C27.0408 16.7317 26.9921 17.3034 26.901 17.8742C26.8606 18.0926 26.73 18.231 26.5235 18.2898C26.0751 18.4138 25.6197 18.5305 25.1712 18.6544C24.9861 18.7067 24.8703 18.8172 24.8167 18.9927C24.5198 19.8982 24.0831 20.7298 23.5347 21.5021C23.4252 21.6481 23.4002 21.8102 23.4669 21.9815C23.6336 22.4168 23.7934 22.8449 23.9601 23.2802C24.0469 23.5015 24.014 23.6988 23.8404 23.8645C23.5944 24.0993 23.3557 24.3271 23.089 24.5402C22.8799 24.7121 22.657 24.8696 22.441 25.0343L22.4127 25.0337ZM21.929 14.2149C20.8714 11.0357 17.4671 9.30842 14.2895 10.2954C11.0193 11.3155 9.26208 14.7899 10.2766 17.9964C11.3182 21.26 14.7794 22.9745 17.9359 21.98C21.2347 20.9463 22.986 17.4223 21.9221 14.2077L21.929 14.2149Z" fill="#6DAA9F"/>
</svg>
