<svg width="348" height="445" viewBox="0 0 348 445" fill="none" xmlns="http://www.w3.org/2000/svg">
<g clip-path="url(#clip0_64_1176)">
<path d="M326.74 443.05H21.21C21.21 431.89 12.16 422.84 1 422.84V21.21C12.16 21.21 21.21 12.16 21.21 1H326.73C326.73 12.16 335.78 21.21 346.94 21.21V422.83C335.78 422.83 326.73 431.88 326.73 443.04L326.74 443.05Z" stroke="#000000" stroke-width="2" stroke-miterlimit="10"/>
<path d="M317.63 12.16C320.82 20.55 327.41 27.14 335.8 30.33V413.73C327.41 416.92 320.82 423.51 317.63 431.9H30.3202C27.1302 423.51 20.5402 416.92 12.1502 413.73V30.32C20.5402 27.13 27.1302 20.54 30.3202 12.15H317.62M319.77 9.15002H28.1802C25.4402 18.25 18.2602 25.43 9.16016 28.17V415.86C18.2602 418.59 25.4402 425.78 28.1802 434.88H319.78C322.52 425.78 329.7 418.6 338.8 415.86V28.18C329.7 25.44 322.52 18.26 319.78 9.16002L319.77 9.15002Z" fill="#F1ECE1"/>
</g>
<defs>
<clipPath id="clip0_64_1176">
<rect width="347.95" height="444.05" fill="white"/>
</clipPath>
</defs>
</svg>
