<svg width="348" height="305" viewBox="0 0 348 305" fill="none" xmlns="http://www.w3.org/2000/svg">
<g clip-path="url(#clip0_64_1074)">
<path d="M326.74 303.03H21.21C21.21 291.87 12.16 282.82 1 282.82V21.21C12.16 21.21 21.21 12.16 21.21 1H326.73C326.73 12.16 335.78 21.21 346.94 21.21V282.81C335.78 282.81 326.73 291.86 326.73 303.02L326.74 303.03Z" stroke="#000000" stroke-width="2" stroke-miterlimit="10"/>
<path d="M317.47 12.16C320.66 20.55 327.25 27.14 335.64 30.33V273.71C327.25 276.9 320.66 283.49 317.47 291.88H30.16C26.97 283.49 20.38 276.9 11.99 273.71V30.32C20.38 27.13 26.97 20.54 30.16 12.15H317.46M319.61 9.15002H28.02C25.28 18.25 18.1 25.43 9 28.17V275.85C18.1 278.58 25.28 285.77 28.02 294.87H319.62C322.36 285.77 329.54 278.59 338.64 275.85V28.18C329.54 25.44 322.36 18.26 319.62 9.16002L319.61 9.15002Z" fill="#F1ECE1"/>
</g>
<defs>
<clipPath id="clip0_64_1074">
<rect width="347.95" height="304.03" fill="white"/>
</clipPath>
</defs>
</svg>
