<svg width="348" height="505" viewBox="0 0 348 505" fill="none" xmlns="http://www.w3.org/2000/svg">
<g clip-path="url(#clip0_64_1093)">
<path d="M326.74 503.05H21.21C21.21 491.89 12.16 482.84 1 482.84V21.21C12.16 21.21 21.21 12.16 21.21 1H326.73C326.73 12.16 335.78 21.21 346.94 21.21V482.83C335.78 482.83 326.73 491.88 326.73 503.04L326.74 503.05Z" stroke="#000000" stroke-width="2" stroke-miterlimit="10"/>
<path d="M317.63 12.16C320.82 20.55 327.41 27.14 335.8 30.33V473.73C327.41 476.92 320.82 483.51 317.63 491.9H30.3199C27.1299 483.51 20.5399 476.92 12.1499 473.73V30.32C20.5399 27.13 27.1299 20.54 30.3199 12.15H317.62M319.77 9.15002H28.1799C25.4399 18.25 18.2599 25.43 9.15991 28.17V475.87C18.2599 478.6 25.4399 485.79 28.1799 494.89H319.78C322.52 485.79 329.7 478.61 338.8 475.87V28.18C329.7 25.44 322.52 18.26 319.78 9.16002L319.77 9.15002Z" fill="#F1ECE1"/>
</g>
<defs>
<clipPath id="clip0_64_1093">
<rect width="347.95" height="504.05" fill="white"/>
</clipPath>
</defs>
</svg>
