<svg width="348" height="455" viewBox="0 0 348 455" fill="none" xmlns="http://www.w3.org/2000/svg">
<path d="M326.74 453.05H21.21C21.21 441.89 12.16 432.84 1 432.84V21.21C12.16 21.21 21.21 12.16 21.21 1H326.73C326.73 12.16 335.78 21.21 346.94 21.21V432.83C335.78 432.83 326.73 441.88 326.73 453.04L326.74 453.05Z" stroke="#000000" stroke-width="2" stroke-miterlimit="10"/>
<path d="M317.47 12.16C320.66 20.55 327.25 27.14 335.64 30.33V423.73C327.25 426.92 320.66 433.51 317.47 441.9H30.16C26.97 433.51 20.38 426.92 11.99 423.73V30.32C20.38 27.13 26.97 20.54 30.16 12.15H317.46M319.61 9.15002H28.02C25.28 18.25 18.1 25.43 9 28.17V425.86C18.1 428.59 25.28 435.78 28.02 444.88H319.62C322.36 435.78 329.54 428.6 338.64 425.86V28.18C329.54 25.44 322.36 18.26 319.62 9.16002L319.61 9.15002Z" fill="#F1ECE1"/>
</svg>
