<svg width="348" height="405" viewBox="0 0 348 405" fill="none" xmlns="http://www.w3.org/2000/svg">
<g clip-path="url(#clip0_64_1096)">
<path d="M326.74 403.04H21.21C21.21 391.88 12.16 382.83 1 382.83V21.21C12.16 21.21 21.21 12.16 21.21 1H326.73C326.73 12.16 335.78 21.21 346.94 21.21V382.82C335.78 382.82 326.73 391.87 326.73 403.03L326.74 403.04Z" stroke="#000000" stroke-width="2" stroke-miterlimit="10"/>
<path d="M317.63 12.16C320.82 20.55 327.41 27.14 335.8 30.33V373.72C327.41 376.91 320.82 383.5 317.63 391.89H30.3202C27.1302 383.5 20.5402 376.91 12.1502 373.72V30.32C20.5402 27.13 27.1302 20.54 30.3202 12.15H317.62M319.77 9.15002H28.1802C25.4402 18.25 18.2602 25.43 9.16016 28.17V375.86C18.2602 378.59 25.4402 385.78 28.1802 394.88H319.78C322.52 385.78 329.7 378.6 338.8 375.86V28.18C329.7 25.44 322.52 18.26 319.78 9.16002L319.77 9.15002Z" fill="#F1ECE1"/>
</g>
<defs>
<clipPath id="clip0_64_1096">
<rect width="347.95" height="404.04" fill="white"/>
</clipPath>
</defs>
</svg>
