<svg width="348" height="485" viewBox="0 0 348 485" fill="none" xmlns="http://www.w3.org/2000/svg">
<g clip-path="url(#clip0_64_1099)">
<path d="M326.74 483.05H21.21C21.21 471.89 12.16 462.84 1 462.84V21.21C12.16 21.21 21.21 12.16 21.21 1H326.73C326.73 12.16 335.78 21.21 346.94 21.21V462.83C335.78 462.83 326.73 471.88 326.73 483.04L326.74 483.05Z" stroke="#000000" stroke-width="2" stroke-miterlimit="10"/>
<path d="M317.63 12.16C320.82 20.55 327.41 27.14 335.8 30.33V453.73C327.41 456.92 320.82 463.51 317.63 471.9H30.3202C27.1302 463.51 20.5402 456.92 12.1502 453.73V30.32C20.5402 27.13 27.1302 20.54 30.3202 12.15H317.62M319.77 9.15002H28.1802C25.4402 18.25 18.2602 25.43 9.16016 28.17V455.87C18.2602 458.6 25.4402 465.79 28.1802 474.89H319.78C322.52 465.79 329.7 458.61 338.8 455.87V28.18C329.7 25.44 322.52 18.26 319.78 9.16002L319.77 9.15002Z" fill="#F1ECE1"/>
</g>
<defs>
<clipPath id="clip0_64_1099">
<rect width="347.95" height="484.05" fill="white"/>
</clipPath>
</defs>
</svg>
